#!OML:ASF F:\VICON\USERDATA\INSTALL\Justin_Nancy\Justin_Nancy.ASF
:FULLY-SPECIFIED
:DEGREES
243
root -8.86882 17.546 -0.918003 -0.790365 -3.57926 2.52856
lowerback 6.70154 0.453274 -3.80838
upperback -0.128132 0.351278 1.19444
thorax -3.92613 0.261391 3.3466
lowerneck -17.6247 -3.45587 -9.00482
upperneck 23.3108 -3.37281 4.33037
head 10.6487 -1.8301 2.57791
rclavicle -6.98231e-015 3.97569e-015
rhumerus -29.5347 -13.7403 -80.8871
rradius 31.0729
rwrist 8.09243
rhand -12.3888 6.911
rfingers 7.12502
rthumb 13.6823 -22.6192
lclavicle -6.98231e-015 3.97569e-015
lhumerus -29.1309 9.08572 86.0923
lradius 26.2372
lwrist -8.01523
lhand -13.7037 33.124
lfingers 7.12502
lthumb 12.4148 62.7353
rfemur -23.5443 -3.97381 16.0383
rtibia 63.8629
rfoot -5.92793 -9.22489
rtoes 7.03034
lfemur -11.4601 -0.794426 -29.3347
ltibia 25.1654
lfoot -10.1492 -4.69471
ltoes 10.6823
244
root -8.85395 17.5207 -0.806312 -0.818943 -3.35207 2.63713
lowerback 6.68164 0.393413 -3.87936
upperback 0.0121843 0.268699 1.20588
thorax -3.76231 0.215862 3.4067
lowerneck -18.0257 -3.49264 -8.99362
upperneck 23.4126 -3.36314 4.23134
head 10.7609 -1.83349 2.53983
rclavicle -2.11209e-015 1.55052e-014
rhumerus -29.435 -13.7343 -80.8161
rradius 31.1141
rwrist 7.80614
rhand -11.9741 6.66334
rfingers 7.12502
rthumb 14.082 -22.8395
lclavicle -2.11209e-015 1.55052e-014
lhumerus -28.767 8.95117 86.2083
lradius 26.6879
lwrist -8.15874
lhand -12.0123 36.8209
lfingers 7.12502
lthumb 14.0451 66.3264
rfemur -24.1199 -3.83997 15.804
rtibia 62.942
rfoot -6.86546 -8.89261
rtoes 5.30943
lfemur -11.295 -0.90721 -29.5757
ltibia 25.7332
lfoot -10.7497 -4.65248
ltoes 11.2512
245
root -8.84932 17.4991 -0.705441 -0.779072 -3.01483 2.53401
lowerback 6.79376 0.26889 -3.88901
upperback -0.0173388 0.101068 1.30042
thorax -3.84155 0.135932 3.52782
lowerneck -17.8347 -3.38755 -8.94309
upperneck 23.2663 -3.22928 4.17034
head 10.658 -1.77505 2.52862
rclavicle 3.97569e-015 -5.56597e-015
rhumerus -29.6798 -13.231 -80.8673
rradius 31.414
rwrist 7.14326
rhand -11.5743 6.58166
rfingers 7.12502
rthumb 14.4672 -22.894
lclavicle 3.97569e-015 -5.56597e-015
lhumerus -28.6006 8.67383 86.2703
lradius 26.9948
lwrist -7.98356
lhand -16.3124 26.4246
lfingers 7.12502
lthumb 9.89881 56.1719
rfemur -24.8379 -3.5106 15.8954
rtibia 61.8205
rfoot -7.46629 -8.57392
rtoes 0.838623
lfemur -11.2255 -1.10515 -29.524
ltibia 26.2396
lfoot -11.4782 -4.69511
ltoes 11.474
246
root -8.84453 17.4858 -0.607561 -0.748388 -2.62697 2.46124
lowerback 7.05598 0.150819 -3.91401
upperback -0.107002 -0.0658036 1.38404
thorax -4.06738 0.0611393 3.64822
lowerneck -17.7016 -3.35526 -8.91878
upperneck 23.242 -3.17734 4.07151
head 10.618 -1.76213 2.4969
rclavicle 1.73937e-015 1.78906e-014
rhumerus -29.9025 -12.8497 -80.8685
rradius 31.5913
rwrist 6.7635
rhand -11.5104 6.53005
rfingers 7.12502
rthumb 14.5288 -22.9412
lclavicle 1.73937e-015 1.78906e-014
lhumerus -28.4237 8.52387 86.3738
lradius 27.1649
lwrist -7.3744
lhand -12.7412 34.8204
lfingers 7.12502
lthumb 13.3426 64.3732
rfemur -25.5037 -3.27883 15.942
rtibia 60.5082
rfoot -8.0543 -8.18328
rtoes -2.66717
lfemur -11.1107 -1.40666 -29.4871
ltibia 26.6749
lfoot -11.8228 -4.97093
ltoes 12.6776
247
root -8.83934 17.4824 -0.506148 -0.516607 -2.19992 2.35611
lowerback 7.08785 0.0404939 -3.89646
upperback -0.131362 -0.2102 1.44697
thorax -4.0972 -0.00911173 3.71954
lowerneck -18.1062 -3.38331 -8.93795
upperneck 23.3393 -3.20694 4.20041
head 10.7355 -1.75874 2.5412
rclavicle -2.6339e-015 1.19271e-015
rhumerus -29.7204 -12.7588 -80.8546
rradius 31.4389
rwrist 6.59775
rhand -11.3996 6.45015
rfingers 7.12502
rthumb 14.6355 -23.0134
lclavicle -2.6339e-015 1.19271e-015
lhumerus -28.0986 7.88487 86.6134
lradius 27.5695
lwrist -6.50334
lhand -15.6543 29.2769
lfingers 7.12502
lthumb 10.5337 58.993
rfemur -26.2242 -3.03233 16.0009
rtibia 59.0178
rfoot -8.72309 -7.83069
rtoes -1.90307
lfemur -11.1658 -1.74641 -29.4104
ltibia 27.0748
lfoot -12.0765 -5.19925
ltoes 13.5996
248
root -8.83508 17.4745 -0.398347 -0.321522 -1.84483 2.26924
lowerback 7.01518 -0.0390859 -3.917
upperback -0.0870877 -0.311801 1.52056
thorax -4.00025 -0.0614852 3.81755
lowerneck -18.5022 -3.40018 -9.04441
upperneck 23.4786 -3.21042 4.3833
head 10.8681 -1.7451 2.62475
rclavicle -1.36167e-014 5.56597e-015
rhumerus -29.5198 -12.7051 -80.8106
rradius 31.32
rwrist 6.68032
rhand -11.4381 6.99512
rfingers 7.12502
rthumb 14.5984 -22.4711
lclavicle -1.36167e-014 5.56597e-015
lhumerus -27.7798 7.26729 86.8367
lradius 28.1693
lwrist -6.10568
lhand -15.6317 29.475
lfingers 7.12502
lthumb 10.5555 59.1899
rfemur -26.8385 -2.62431 16.0018
rtibia 57.3772
rfoot -9.49982 -7.43424
rtoes -2.80046
lfemur -11.1314 -2.02685 -29.3527
ltibia 27.3828
lfoot -12.4104 -5.35721
ltoes 13.542
249
root -8.82808 17.4576 -0.288377 -0.325862 -1.61349 2.13246
lowerback 7.2242 -0.0553762 -3.83551
upperback -0.133226 -0.331672 1.5926
thorax -4.16409 -0.067526 3.85157
lowerneck -18.2819 -3.40353 -9.1159
upperneck 23.3529 -3.22641 4.43529
head 10.7828 -1.75286 2.65289
rclavicle -6.85807e-015 6.36111e-015
rhumerus -29.6842 -12.6671 -80.6947
rradius 31.3796
rwrist 6.94986
rhand -11.5575 7.80836
rfingers 7.12502
rthumb 14.4834 -21.6662
lclavicle -6.85807e-015 6.36111e-015
lhumerus -27.6825 6.69737 86.9906
lradius 28.5668
lwrist -5.85981
lhand -12.9869 35.3191
lfingers 7.12502
lthumb 13.1058 64.8873
rfemur -27.1529 -2.1151 16.0226
rtibia 55.586
rfoot -10.5844 -6.99585
rtoes -7.05675
lfemur -10.8428 -2.03624 -29.2476
ltibia 27.6139
lfoot -12.853 -5.62153
ltoes 13.4677
250
root -8.82015 17.4453 -0.179539 -0.238919 -1.30394 2.11527
lowerback 7.32662 -0.122641 -3.8521
upperback -0.192278 -0.424619 1.64509
thorax -4.2741 -0.109004 3.9277
lowerneck -18.1768 -3.39789 -9.11929
upperneck 23.2515 -3.21844 4.4088
head 10.7244 -1.75226 2.64422
rclavicle 3.50358e-015 1.59028e-015
rhumerus -29.6988 -12.4631 -80.6158
rradius 31.5241
rwrist 7.44697
rhand -11.7256 7.31419
rfingers 7.12502
rthumb 14.3214 -22.1719
lclavicle 3.50358e-015 1.59028e-015
lhumerus -27.6239 6.40055 87.1155
lradius 29.0205
lwrist -5.61744
lhand -12.2087 37.8423
lfingers 7.12502
lthumb 13.8559 67.3607
rfemur -27.4235 -1.67791 15.9054
rtibia 53.6652
rfoot -11.5638 -6.61443
rtoes -11.6545
lfemur -10.5703 -2.09173 -29.2784
ltibia 27.7571
lfoot -13.2054 -5.91657
ltoes 13.662
251
root -8.81339 17.4436 -0.0656613 -0.121539 -0.942277 2.20729
lowerback 7.26937 -0.196295 -4.01043
upperback -0.167805 -0.534306 1.64097
thorax -4.20461 -0.162223 4.02381
lowerneck -18.54 -3.42754 -9.08964
upperneck 23.4448 -3.26607 4.51699
head 10.8699 -1.75678 2.67228
rclavicle 4.07509e-015 -7.15625e-015
rhumerus -29.7866 -12.2893 -80.6326
rradius 32.0952
rwrist 8.16497
rhand -11.56 6.02912
rfingers 7.12502
rthumb 14.481 -23.4456
lclavicle 4.07509e-015 -7.15625e-015
lhumerus -27.4649 5.92357 87.2404
lradius 29.5186
lwrist -5.62259
lhand -15.8513 29.5468
lfingers 7.12502
lthumb 10.3436 59.2724
rfemur -27.6773 -1.17754 15.6019
rtibia 51.5549
rfoot -11.325 -6.35181
rtoes -11.7347
lfemur -10.2539 -2.2855 -29.4171
ltibia 27.8371
lfoot -13.5768 -6.20904
ltoes 14.214
252
root -8.80769 17.4466 0.0460005 0.0291034 -0.566386 2.26436
lowerback 7.20917 -0.24666 -4.14941
upperback -0.132049 -0.609772 1.66131
thorax -4.12453 -0.19926 4.13055
lowerneck -18.6149 -3.49604 -8.97094
upperneck 23.249 -3.3546 4.39771
head 10.8144 -1.79705 2.59225
rclavicle 2.21148e-015 -5.56597e-015
rhumerus -29.7445 -12.3578 -80.5657
rradius 32.2761
rwrist 8.31666
rhand -11.5899 6.47924
rfingers 7.12502
rthumb 14.4522 -22.9975
lclavicle 2.21148e-015 -5.56597e-015
lhumerus -27.1841 5.37607 87.4106
lradius 29.8223
lwrist -5.75662
lhand -17.203 26.5468
lfingers 7.12502
lthumb 9.03951 56.3331
rfemur -27.9755 -0.575792 15.2507
rtibia 49.3262
rfoot -10.5088 -5.74789
rtoes -7.76109
lfemur -9.96327 -2.54392 -29.5167
ltibia 27.8138
lfoot -13.9603 -6.39095
ltoes 13.9008
253
root -8.80833 17.4477 0.152392 0.10328 -0.0375361 2.08175
lowerback 7.28969 -0.356695 -4.13042
upperback -0.116065 -0.752498 1.78549
thorax -4.13727 -0.269206 4.2661
lowerneck -18.3166 -3.4801 -8.84919
upperneck 22.839 -3.35411 4.26756
head 10.6017 -1.79906 2.52149
rclavicle -1.51325e-014 -4.77083e-015
rhumerus -29.8134 -12.3272 -80.4544
rradius 32.3408
rwrist 8.03516
rhand -12.0479 7.21639
rfingers 7.12502
rthumb 14.0108 -22.2914
lclavicle -1.51325e-014 -4.77083e-015
lhumerus -27.1816 4.69707 87.6482
lradius 30.7988
lwrist -4.90147
lhand -16.7102 27.1591
lfingers 7.12502
lthumb 9.51495 56.9242
rfemur -28.0846 0.144709 15.1637
rtibia 46.9578
rfoot -10.0439 -4.99612
rtoes -6.78692
lfemur -9.57254 -2.82199 -29.3106
ltibia 27.7046
lfoot -14.3375 -6.66519
ltoes 13.4829
254
root -8.81204 17.4467 0.261796 0.222611 0.504147 2.02657
lowerback 7.36893 -0.463424 -4.21022
upperback -0.172375 -0.903284 1.83012
thorax -4.22321 -0.338468 4.37648
lowerneck -18.3622 -3.45665 -8.97827
upperneck 22.8228 -3.3435 4.52008
head 10.6101 -1.77409 2.63588
rclavicle -1.99779e-014 7.95139e-015
rhumerus -29.939 -12.4139 -80.3645
rradius 32.4153
rwrist 8.16077
rhand -11.9694 6.90272
rfingers 7.12502
rthumb 14.0865 -22.5998
lclavicle -1.99779e-014 7.95139e-015
lhumerus -27.2803 4.11568 87.7538
lradius 31.6875
lwrist -4.35324
lhand -13.3299 34.738
lfingers 7.12502
lthumb 12.7752 64.3272
rfemur -28.1161 0.874262 14.9101
rtibia 44.5137
rfoot -9.90227 -4.15444
rtoes -10.5924
lfemur -9.18676 -3.05356 -29.2131
ltibia 27.5027
lfoot -14.5703 -7.08513
ltoes 13.1807
255
root -8.80734 17.4478 0.376288 0.495266 1.02887 2.10761
lowerback 7.18096 -0.581358 -4.31999
upperback -0.23264 -1.06372 1.81824
thorax -4.16161 -0.416429 4.43981
lowerneck -18.5202 -3.44629 -8.98432
upperneck 22.8424 -3.31758 4.54374
head 10.6458 -1.75816 2.64868
rclavicle 2.05245e-014 -1.35174e-014
rhumerus -29.8514 -12.3237 -80.378
rradius 32.3352
rwrist 8.00888
rhand -11.8419 6.34955
rfingers 7.12502
rthumb 14.2094 -23.1444
lclavicle 2.05245e-014 -1.35174e-014
lhumerus -27.2204 3.87409 87.7743
lradius 32.0157
lwrist -4.80162
lhand -15.3995 30.2855
lfingers 7.12502
lthumb 10.7794 59.9889
rfemur -28.216 1.6884 14.3925
rtibia 41.9684
rfoot -9.69231 -3.17905
rtoes -13.5998
lfemur -8.90346 -3.38339 -29.3103
ltibia 27.2276
lfoot -14.5911 -7.40259
ltoes 12.6355
256
root -8.80246 17.4618 0.492105 0.607175 1.5112 2.05921
lowerback 7.00875 -0.646563 -4.32629
upperback -0.159171 -1.14319 1.82698
thorax -3.97904 -0.462333 4.45522
lowerneck -18.6618 -3.50026 -8.82393
upperneck 22.8745 -3.38314 4.37139
head 10.6835 -1.79347 2.54892
rclavicle 1.35174e-014 0
rhumerus -29.6624 -12.538 -80.3375
rradius 32.2441
rwrist 7.98033
rhand -11.6835 6.37117
rfingers 7.12502
rthumb 14.362 -23.112
lclavicle 1.35174e-014 0
lhumerus -27.18 3.48 87.8275
lradius 32.6334
lwrist -4.56627
lhand -16.3733 28.2781
lfingers 7.12502
lthumb 9.84006 58.0282
rfemur -28.1937 2.82638 13.9175
rtibia 39.3722
rfoot -9.38201 -2.08844
rtoes -11.3707
lfemur -8.41253 -3.63672 -29.2603
ltibia 26.9539
lfoot -14.7297 -7.71034
ltoes 12.3557
257
root -8.80402 17.471 0.604428 0.606332 2.0634 2.02069
lowerback 7.07372 -0.715104 -4.42427
upperback -0.0705047 -1.2429 1.86169
thorax -3.90964 -0.513369 4.5572
lowerneck -18.8252 -3.57384 -8.87059
upperneck 22.9365 -3.49648 4.51736
head 10.7495 -1.83018 2.59252
rclavicle -1.38155e-014 1.11319e-014
rhumerus -29.474 -12.8452 -80.2634
rradius 32.3101
rwrist 7.96867
rhand -11.6343 6.08544
rfingers 7.12502
rthumb 14.4094 -23.3944
lclavicle -1.38155e-014 1.11319e-014
lhumerus -27.0166 3.00331 87.9205
lradius 33.2584
lwrist -3.71768
lhand -16.3747 27.9901
lfingers 7.12502
lthumb 9.83864 57.7402
rfemur -28.0831 4.21214 13.352
rtibia 36.7918
rfoot -8.88607 -1.05027
rtoes -9.36276
lfemur -7.82049 -3.84847 -29.1764
ltibia 26.7022
lfoot -14.856 -8.24134
ltoes 13.3016
